# xmcd CD database file
#
# Track frame offsets:
#	150
#	19414
#	32846
#	50674
#	69368
#	88828
#	107116
#	120648
#	138116
#	155727
#	178292
#	194324
#	208514
#	228889
#	248884
#
# Disc length: 3558 seconds
#
# Revision: 0
# Processed by: cddbd v1.5.2PL0 Copyright (c) Steve Scherf et al.
# Submitted via: CDex 1.77
#
DISCID=d50de40f
DTITLE=The BossHoss - Low Voltage
DYEAR=2010
DGENRE=Country
TTITLE0=Stallion Battalion
TTITLE1=Have Love Will Travel
TTITLE2=Rodeo Queen
TTITLE3=Shake and Shout
TTITLE4=Go!Go!Go!
TTITLE5=Rodeo Radio
TTITLE6=Close
TTITLE7=I Say a Little Prayer
TTITLE8=Break Free
TTITLE9=Mary Marry Me
TTITLE10=Gay Bar
TTITLE11=Remedy
TTITLE12=Sugarman
TTITLE13=No One Knows
TTITLE14=Last Day
EXTD=YEAR: 2010
EXTT0=
EXTT1=
EXTT2=
EXTT3=
EXTT4=
EXTT5=
EXTT6=
EXTT7=
EXTT8=
EXTT9=
EXTT10=
EXTT11=
EXTT12=
EXTT13=
EXTT14=
PLAYORDER=
